<svg width="19" height="19" fill="none" xmlns="http://www.w3.org/2000/svg"><path d="M13.596 0h-8.55A5.052 5.052 0 000 5.046v8.55a5.052 5.052 0 005.046 5.047h8.55a5.052 5.052 0 005.047-5.046v-8.55A5.052 5.052 0 0013.596 0zm3.954 13.597a3.958 3.958 0 01-3.954 3.953h-8.55a3.958 3.958 0 01-3.953-3.954v-8.55a3.958 3.958 0 013.953-3.953h8.55a3.958 3.958 0 013.954 3.953v8.55z" fill="#FBF5F5"/><path d="M9.321 4.224A5.103 5.103 0 004.224 9.32a5.103 5.103 0 005.096 5.1 5.103 5.103 0 005.1-5.1 5.103 5.103 0 00-5.1-5.096zm0 9.102a4.01 4.01 0 01-4.004-4.005A4.01 4.01 0 019.32 5.317a4.01 4.01 0 014.005 4.004 4.01 4.01 0 01-4.005 4.005zM14.54 2.414c-.83 0-1.506.675-1.506 1.506 0 .83.676 1.506 1.506 1.506.831 0 1.507-.676 1.507-1.506s-.676-1.506-1.507-1.506zm0 1.92a.414.414 0 11.002-.829.414.414 0 01-.002.828z" fill="#FBF5F5"/></svg>