<svg width="18" height="16" fill="none" xmlns="http://www.w3.org/2000/svg"><path d="M17.722.438A1.145 1.145 0 0016.795 0c-.206 0-.424.045-.648.135L.911 6.246c-.809.324-.918.81-.91 1.072.006.261.141.74.966 1.016l.015.005 3.16.95 1.71 5.135c.233.7.756 1.135 1.365 1.135.384 0 .762-.17 1.093-.489l1.954-1.891 2.836 2.399.028.023.007.006c.315.257.66.393.995.393.657 0 1.18-.51 1.332-1.3L17.96 1.747c.1-.52.016-.985-.237-1.31zM5.2 9.108l6.097-3.272-3.796 4.238a.562.562 0 00-.128.247l-.733 3.116L5.2 9.109zm2.395 5.147a.996.996 0 01-.076.066l.68-2.89 1.235 1.045-1.839 1.779zm9.33-12.727L14.43 14.479c-.024.124-.101.413-.299.413-.097 0-.22-.056-.345-.157l-3.213-2.718-.001-.002-1.912-1.617 5.49-6.13a.575.575 0 00.038-.712.511.511 0 00-.662-.16l-9.03 4.846-3.203-.963 15.232-6.108a.741.741 0 01.27-.063c.033 0 .09.004.112.032.028.036.063.158.02.388z" fill="#FBF5F5"/></svg>