<svg width="19" height="19" fill="none" xmlns="http://www.w3.org/2000/svg"><path d="M16.352 2.648A8.98 8.98 0 009.96 0h-.001a8.997 8.997 0 00-3.46.688 8.996 8.996 0 00-2.932 1.96A8.981 8.981 0 00.919 9.041c0 1.44.347 2.87 1.006 4.146l-1.52 4.341a.83.83 0 00.198.869.83.83 0 00.869.198l4.341-1.52a9.068 9.068 0 004.147 1.006c2.414 0 4.685-.94 6.392-2.647A8.982 8.982 0 0019 9.04a8.98 8.98 0 00-2.648-6.393zM15.58 14.66a7.895 7.895 0 01-5.62 2.328 7.968 7.968 0 01-3.73-.93.842.842 0 00-.672-.051l-3.944 1.38 1.38-3.944a.842.842 0 00-.052-.672 7.967 7.967 0 01-.929-3.73c0-2.123.827-4.119 2.328-5.62A7.896 7.896 0 019.96 1.093c2.123 0 4.12.827 5.62 2.328a7.894 7.894 0 012.328 5.62 7.895 7.895 0 01-2.328 5.62z" fill="#FBF5F5"/><path d="M13.32 9.848a1.068 1.068 0 00-1.51 0l-.454.455a6.622 6.622 0 01-2.66-2.659l.456-.455a1.068 1.068 0 000-1.508L7.926 4.455a1.068 1.068 0 00-1.509 0l-.98.98c-.562.562-.59 1.528-.08 2.72.444 1.034 1.256 2.172 2.286 3.202 1.03 1.03 2.168 1.842 3.202 2.285.567.243 1.082.364 1.527.364.491 0 .898-.148 1.192-.443l.981-.98a1.06 1.06 0 00.313-.755 1.06 1.06 0 00-.313-.754l-1.226-1.226zm-.529 2.942c-.16.16-.653.217-1.515-.153-.91-.39-1.926-1.12-2.86-2.053-.934-.934-1.663-1.95-2.053-2.86-.37-.862-.313-1.355-.153-1.515l.962-.962L8.36 6.435l-.57.57a.834.834 0 00-.154.971 7.713 7.713 0 003.388 3.388.834.834 0 00.972-.154l.569-.57 1.188 1.188-.962.962z" fill="#FBF5F5"/></svg>